<svg width="30" height="30" viewBox="0 0 30 30" fill="none" xmlns="http://www.w3.org/2000/svg">
<rect x="1.5" y="1.5" width="27" height="27" rx="6.5" fill="#E6EAF6"/>
<rect x="1.5" y="1.5" width="27" height="27" rx="6.5" stroke="#E6EAF6" stroke-width="3"/>
<path d="M18 5H9C8.46957 5 7.96086 5.21071 7.58579 5.58579C7.21071 5.96086 7 6.46957 7 7V23C7 23.5304 7.21071 24.0391 7.58579 24.4142C7.96086 24.7893 8.46957 25 9 25H21C21.5304 25 22.0391 24.7893 22.4142 24.4142C22.7893 24.0391 23 23.5304 23 23V10L18 5Z" fill="#2F5DBD" stroke="#2F5DBD" stroke-width="2" stroke-linecap="round" stroke-linejoin="round"/>
<path d="M17 5V9C17 9.53043 17.2107 10.0391 17.5858 10.4142C17.9609 10.7893 18.4696 11 19 11H23" stroke="white" stroke-width="2" stroke-linecap="round" stroke-linejoin="round"/>
<path d="M13 12H11" stroke="#2F5DBD" stroke-width="2" stroke-linecap="round" stroke-linejoin="round"/>
<path d="M19 16H11" stroke="white" stroke-width="2" stroke-linecap="round" stroke-linejoin="round"/>
<path d="M19 20H11" stroke="white" stroke-width="2" stroke-linecap="round" stroke-linejoin="round"/>
</svg>