<svg width="32" height="32" viewBox="0 0 32 32" fill="none" xmlns="http://www.w3.org/2000/svg">
<g clip-path="url(#clip0_46_222)">
<rect x="1" y="1" width="30" height="30" rx="4" fill="#EDEEEE"/>
<path d="M26 3.5H11C9.625 3.5 8.5 4.625 8.5 6V21C8.5 22.375 9.625 23.5 11 23.5H26C27.375 23.5 28.5 22.375 28.5 21V6C28.5 4.625 27.375 3.5 26 3.5ZM15.375 12.875C15.375 13.9125 14.5375 14.75 13.5 14.75H12.25V17.25H10.375V9.75H13.5C14.5375 9.75 15.375 10.5875 15.375 11.625V12.875ZM21.625 15.375C21.625 16.4125 20.7875 17.25 19.75 17.25H16.625V9.75H19.75C20.7875 9.75 21.625 10.5875 21.625 11.625V15.375ZM26.625 11.625H24.75V12.875H26.625V14.75H24.75V17.25H22.875V9.75H26.625V11.625ZM12.25 12.875H13.5V11.625H12.25V12.875ZM6 8.5H3.5V26C3.5 27.375 4.625 28.5 6 28.5H23.5V26H6V8.5ZM18.5 15.375H19.75V11.625H18.5V15.375Z" fill="#0073CF"/>
</g>
<rect x="0.5" y="0.5" width="31" height="31" rx="4.5" stroke="#EDEEEE"/>
<defs>
<clipPath id="clip0_46_222">
<rect x="1" y="1" width="30" height="30" rx="4" fill="white"/>
</clipPath>
</defs>
</svg>